<svg id="board" xmlns="http://www.w3.org/2000/svg" viewBox="0 0 630 380"><defs><style>.cls-1{fill:#42b0a3;stroke:#828282;}.cls-1,.cls-7{stroke-linecap:round;}.cls-2{font-size:34px;letter-spacing:0.12em;}.cls-11,.cls-13,.cls-14,.cls-15,.cls-18,.cls-19,.cls-2{fill:#fff;}.cls-18,.cls-19,.cls-2,.cls-8{font-family:MyriadPro-Regular, Myriad Pro;}.cls-3{letter-spacing:0.12em;}.cls-4{letter-spacing:0.13em;}.cls-5{letter-spacing:0.13em;}.cls-6{letter-spacing:0.13em;}.cls-7{fill:#c9c7c7;stroke-linejoin:bevel;}.cls-10,.cls-11,.cls-7{stroke:#000;}.cls-14,.cls-7{stroke-width:2px;}.cls-8{font-size:15px;}.cls-9{font-size:72px;font-family:MyriadPro-Bold, Myriad Pro;font-weight:700;}.cls-10{fill:#c6c6c6;}.cls-11,.cls-17{stroke-miterlimit:10;}.cls-12,.cls-14,.cls-15{stroke:#201f1f;}.cls-16{fill:#0e0000;}.cls-17{fill:red;stroke:#050101;}.cls-18{font-size:24px;}.cls-19{font-size:14px;}.cls-20{letter-spacing:0em;}.cls-21{letter-spacing:0em;}.cls-22{letter-spacing:-0.01em;}.cls-23{letter-spacing:-0.01em;}</style></defs><title>Prevenpinta!</title><g id="decoracion"><path class="cls-1" d="M350.64,305.55,62.86,369.62a10,10,0,0,1-12.11-7.3L43.53,333.2a10,10,0,0,1,7.3-12.11L333.61,241a10,10,0,0,1,12.11,7.3l12.22,45.12A10,10,0,0,1,350.64,305.55Z"/><text class="cls-2" transform="translate(63.94 356.01) rotate(-14.52)">P<tspan class="cls-3" x="22.07" y="0">r</tspan><tspan class="cls-4" x="37.37" y="0">e</tspan><tspan class="cls-3" x="58.92" y="0">v</tspan><tspan class="cls-5" x="79.46" y="0">enpi</tspan><tspan class="cls-6" x="160.75" y="0">n</tspan><tspan class="cls-4" x="184.01" y="0">ta</tspan></text></g><g id="current-player-info"><path id="current-player-panel" class="cls-7" d="M257.5,162.5c-.25-16.25-35.94-39.49-42.25-49.25C208.63,103,171.75,131,107,133c-7,14.5,8.5,67.25,16.25,85.25C208.75,228,257.69,175.17,257.5,162.5Z"/><text class="cls-8" transform="translate(123.33 167.98)">jugador</text><text class="cls-9" transform="translate(184 189.5)">0</text></g><g id="casillas"><rect id="casilla_0" class="cls-10" x="226.5" y="250" width="50" height="50" rx="5" ry="5"/><rect id="casilla_1" class="cls-10" x="283.09" y="256.59" width="35.91" height="35.91" rx="5" ry="5"/><rect id="casilla_2" class="cls-10" x="328.84" y="256.59" width="35.91" height="35.91" rx="5" ry="5"/><rect id="casilla_3" class="cls-10" x="374.59" y="256.59" width="35.91" height="35.91" rx="5" ry="5"/><rect id="casilla_4" class="cls-10" x="420.34" y="256.59" width="35.91" height="35.91" rx="5" ry="5"/><rect id="casilla_5" class="cls-10" x="466.09" y="256.59" width="35.91" height="35.91" rx="5" ry="5"/><rect id="casilla_6" class="cls-10" x="511.84" y="256.59" width="35.91" height="35.91" rx="5" ry="5"/><rect id="casilla_7" class="cls-10" x="557.59" y="256.59" width="35.91" height="35.91" rx="5" ry="5"/><rect id="casilla_8" class="cls-10" x="557.59" y="215.59" width="35.91" height="35.91" rx="5" ry="5"/><rect id="casilla_9" class="cls-10" x="557.59" y="174.59" width="35.91" height="35.91" rx="5" ry="5"/><rect id="casilla_10" class="cls-10" x="512.45" y="174.59" width="35.91" height="35.91" rx="5" ry="5"/><rect id="casilla_11" class="cls-10" x="466.81" y="174.59" width="35.91" height="35.91" rx="5" ry="5"/><rect id="casilla_12" class="cls-10" x="421.16" y="174.59" width="35.91" height="35.91" rx="5" ry="5"/><rect id="casilla_13" class="cls-10" x="375.52" y="174.59" width="35.91" height="35.91" rx="5" ry="5"/><rect id="casilla_14" class="cls-10" x="329.88" y="174.59" width="35.91" height="35.91" rx="5" ry="5"/><rect id="casilla_15" class="cls-10" x="284.23" y="174.59" width="35.91" height="35.91" rx="5" ry="5"/><rect id="casilla_16" class="cls-10" x="238.59" y="174.59" width="35.91" height="35.91" rx="5" ry="5"/><rect id="casilla_17" class="cls-10" x="238.59" y="132.59" width="35.91" height="35.91" rx="5" ry="5"/><rect id="casilla_18" class="cls-10" x="238.59" y="90.59" width="35.91" height="35.91" rx="5" ry="5"/><rect id="casilla_19" class="cls-10" x="283.59" y="90.59" width="35.91" height="35.91" rx="5" ry="5"/><rect id="casilla_20" class="cls-10" x="329.34" y="90.59" width="35.91" height="35.91" rx="5" ry="5"/><rect id="casilla_21" class="cls-10" x="375.09" y="90.59" width="35.91" height="35.91" rx="5" ry="5"/><rect id="casilla_22" class="cls-10" x="420.84" y="90.59" width="35.91" height="35.91" rx="5" ry="5"/><rect id="casilla_23" class="cls-10" x="466.59" y="90.59" width="35.91" height="35.91" rx="5" ry="5"/><rect id="casilla_24" class="cls-10" x="512.34" y="90.59" width="35.91" height="35.91" rx="5" ry="5"/><rect id="casilla_25" class="cls-10" x="558.09" y="90.59" width="35.91" height="35.91" rx="5" ry="5"/><rect id="casilla_26" class="cls-10" x="558.09" y="49.59" width="35.91" height="35.91" rx="5" ry="5"/><rect id="casilla_27" class="cls-10" x="558.09" y="8.59" width="35.91" height="35.91" rx="5" ry="5"/><rect id="casilla_28" class="cls-10" x="512.95" y="8.59" width="35.91" height="35.91" rx="5" ry="5"/><rect id="casilla_29" class="cls-10" x="467.31" y="8.59" width="35.91" height="35.91" rx="5" ry="5"/><rect id="casilla_30" class="cls-10" x="421.66" y="8.59" width="35.91" height="35.91" rx="5" ry="5"/><rect id="casilla_31" class="cls-10" x="376.02" y="8.59" width="35.91" height="35.91" rx="5" ry="5"/><rect id="casilla_32" class="cls-10" x="330.38" y="8.59" width="35.91" height="35.91" rx="5" ry="5"/><rect id="casilla_33" class="cls-10" x="284.73" y="8.59" width="35.91" height="35.91" rx="5" ry="5"/><rect id="casilla_34" class="cls-10" x="226.5" y="1" width="50" height="50" rx="5" ry="5"/></g><g id="dice"><rect id="dice-bg" class="cls-11" x="101.31" y="182.62" width="66.12" height="64.66" rx="12" ry="12" transform="translate(-45.44 36.26) rotate(-13.17)"/><g id="dice-6"><circle cx="112.17" cy="200" r="4.33"/><circle cx="147.17" cy="192.5" r="4.33"/><circle cx="116.67" cy="219" r="4.33"/><circle cx="151.36" cy="211.84" r="4.33"/><circle cx="120.67" cy="237" r="4.33"/><circle cx="155.67" cy="229.5" r="4.33"/></g><g id="dice-5"><circle cx="112.17" cy="200" r="4.33"/><circle cx="147.17" cy="192.5" r="4.33"/><circle cx="134.18" cy="215.23" r="4.33"/><circle cx="120.67" cy="237" r="4.33"/><circle cx="155.67" cy="229.5" r="4.33"/></g><g id="dice-4"><circle cx="112.17" cy="200" r="4.33"/><circle cx="147.17" cy="192.5" r="4.33"/><circle cx="120.67" cy="237" r="4.33"/><circle cx="155.67" cy="229.5" r="4.33"/></g><g id="dice-3"><circle cx="147.17" cy="192.5" r="4.33"/><circle cx="134.18" cy="215.23" r="4.33"/><circle cx="120.67" cy="237" r="4.33"/></g><g id="dice-2"><circle cx="147.17" cy="192.5" r="4.33"/><circle cx="120.67" cy="237" r="4.33"/></g><g id="dice-1"><circle cx="134.18" cy="215.23" r="4.33"/></g></g><g id="player"><g id="player-icon"><g id="zapatos"><path class="cls-12" d="M14.88,65.58l3.61.1,3.61.1L22,67.44c-.1,2.14-.22,2.46-1,2.46a33.3,33.3,0,0,0-7.22,2,15.75,15.75,0,0,0-3.23,2.4L8.81,76v3.23c0,3,.06,3.26.73,3.84,1.82,1.44,5.49,1.82,11,1.12a27.26,27.26,0,0,0,11.08-3.55l1.95-1.18,3.26,1.12a34.69,34.69,0,0,0,6,1.5c4.92.67,11.43-.19,13.38-1.79s2-1.66,1.88-3.94c-.22-2.78-.73-3.81-2.62-5.06s-4.18-2-7.76-2.24c-2.43-.16-3-.29-3-.7s-.1-1.06-.19-1.73l-.22-1.18H50.9ZM36,67.76l.06,2-1.25.67-1.25.7-1.44-.7-1.41-.67v-4H36Z"/><path id="Path" class="cls-13" d="M44,74.86a8.27,8.27,0,0,1-1.69,1.82l-1.85,1.7,1.09.22c1,.19,1.21.1,3.07-1.73s2-1.92,3.16-1.73l1.18.22L47.1,77.3l-1.85,1.89,2.68,0a23,23,0,0,0,4.89-.58C55,78,55,78,54.89,78.67c-.13,1-3.16,1.73-7.12,1.76-7,.06-15.2-2.56-14.05-4.45.1-.16.7.06,1.31.48a7.17,7.17,0,0,0,2.24,1c1,.19,1.25.06,2.87-1.47s1.88-1.66,2.75-1.47A3,3,0,0,1,44,74.86Z"/><path id="Path-2" data-name="Path" class="cls-13" d="M26.7,76.94a19.93,19.93,0,0,0,2.08,1.6A16.67,16.67,0,0,0,32.54,76c.32-.45.38-.42.38.32,0,1.6-3.35,3.58-8.94,5.25a19.12,19.12,0,0,1-6.71.93c-4.34,0-5.43-.22-5.43-1.15,0-.61.13-.64,1.53-.38a28.69,28.69,0,0,0,7.28,0c.48-.19.29-.51-1.15-2L17.82,77.3l.86-.35c1.28-.48,1.28-.48,3.42,1.44,1.53,1.38,2.14,1.73,2.65,1.57,1.25-.38,1.18-.64-.45-2.18a13.66,13.66,0,0,1-1.6-1.66,4,4,0,0,1,1.76-.74A8.37,8.37,0,0,1,26.7,76.94Z"/></g><g id="ojos"><path id="ojodchogrande" class="cls-14" d="M47.32,39.08a5.39,5.39,0,0,1,0,8.16,5.88,5.88,0,0,1-1.95,1.06A5.49,5.49,0,0,1,41,46.89c-.93-.83-1-1-.67-2.27A8.43,8.43,0,0,0,40.43,42a1.86,1.86,0,0,1,.38-1.89C42.6,38,45.54,37.58,47.32,39.08Z"/><path id="ojoizgrande" class="cls-15" d="M37.07,38.7c2.75,1.41,3.19,6,.8,8.35a8.8,8.8,0,0,1-1.41.93c-1.63.83-3.61.42-5.27-1.12-1.28-1.22-1.31-1.28-1.31-3.33a4.6,4.6,0,0,1,2.39-4.61A5.16,5.16,0,0,1,37.07,38.7Z"/><circle id="ojoiz" class="cls-16" cx="33.65" cy="43.03" r="1.5"/><circle id="ojoiz-2" data-name="ojoiz" class="cls-16" cx="43.65" cy="43.03" r="1.5"/></g><path id="player-body" class="cls-17" d="M38.67.77a6.7,6.7,0,0,1,2,1.66c.73,1.06.73,1.09.7,11,0,5.44-.13,10.75-.26,11.75-.22,1.66-.32,1.82-1.09,1.92s-.89.29-1,1,0,.9.64.64a9.54,9.54,0,0,1,2.24-.26c1.85,0,2.27-.35,1-.83-.57-.19-1-.51-1-.7.06-3.23,1.53-16,2.24-19.62.48-2.37,1.69-3.42,4.06-3.58,2.62-.16,4.53.83,5.2,2.72.38,1.18.38,1.7-.1,4.48-.51,3.14-1.69,8.8-3.35,16.42l-.86,4-2.55.22c-2.91.26-5.52.77-6.23,1.22s-.22.64.93.32a33.68,33.68,0,0,1,4.28-.51l3.19-.22-.22,2c-.35,3.1-.51,3.55-1.12,3.3a8.81,8.81,0,0,0-4.66-.13,6.07,6.07,0,0,0-2,1.28l-.89.93L39,39c-2.14-2.34-6.61-2.24-8.53.19a6.43,6.43,0,0,0-1.56,4.93,3.82,3.82,0,0,0,1.25,3,5.42,5.42,0,0,0,4.69,2,3.8,3.8,0,0,0,2.81-.74c1.95-1.57,1.82-1.54,2.68-.74a12,12,0,0,0,1.47,1.12,10.37,10.37,0,0,0,5.24,0c.73-.42,1.12.22.8,1.41-.38,1.57-7.28,4-12,4.26-3.45.19-4.73-.22-5.65-1.86-.57-1-.86-1.12-1.18-.61-.45.7,1.28,3,2.87,3.81,1.44.74,1.95.83,4.95.8a13.13,13.13,0,0,0,5.72-.86c2.91-1.06,3.1-1.06,2.46-.06a4.23,4.23,0,0,0-.51.9,12,12,0,0,0,2.08,1.5c1.25.8,2.08,1.57,2.08,1.92s.1,1.22.19,2L49,63.41l-13,.26c-7.28.13-13.09.13-13.25,0A15.17,15.17,0,0,1,22,60.21a11.43,11.43,0,0,0-.64-3.1A9.58,9.58,0,0,0,21,59.76c-.32,4.13-.29,4.06-2.49,4.06H16.64v-2c0-1.86.1-2.14,1.12-3.33l1.12-1.31-.73-.93a5,5,0,0,1-1.5-2.94c0-.58.19-.67,1.28-.67,1.41,0,3.19-.74,3.19-1.31,0-.26-.48-.29-1.37-.16C18,51.4,12,50.6,9.29,49.77c-2.91-.9-4.82-2.27-5.81-4.1C1.09,41.23-.45,31.18.8,28.17c1-2.34,3.26-2.75,5.75-1.12a8.63,8.63,0,0,1,4,7.07,5.14,5.14,0,0,0,1.76,4c.73.58,1.31.7,3.19.7,2.52,0,4.31-.48,4.31-1.12,0-.32-.45-.38-1.82-.29a6.07,6.07,0,0,1-2.24-.1,14.62,14.62,0,0,1-1.05-4.06,46.1,46.1,0,0,0-1.66-6.4C9.8,18.05,7.38,10.53,7.38,9.32A6.05,6.05,0,0,1,8,6.88c1.56-2.94,6.61-3,8.49-.22,1.18,1.82,3,8.8,4.85,18.12.57,3.07.57,3-.32,3.46-.57.26-.73.51-.61,1,.22.86.29.83,2-.29a5.53,5.53,0,0,1,1.85-1,.39.39,0,0,0,.42-.32c0-.19-.42-.32-.93-.32H22.8L22,22.92c-.48-2.4-1.21-7.43-1.69-11.17-1-7.49-.89-8.71.7-10.18,2.11-2,6.64-.8,7.73,2,.7,1.73,3.13,23.17,2.71,23.84-.06.16-.42.26-.77.26s-.61.19-.61.45.51.51,1.53.61a12.66,12.66,0,0,1,2.24.38c.61.19.7.13.7-.58s-.16-.83-1-.93l-1.05-.1-.38-5.76c-.19-3.17-.38-8.42-.38-11.68,0-5.57,0-6,.7-7.36A4.4,4.4,0,0,1,38.67.77Z"/></g><g id="player-info"><rect id="player-panel" class="cls-7" y="1" width="90.61" height="61.37" rx="12" ry="12"/><text class="cls-18" transform="translate(38.34 28)">0</text><text class="cls-19" transform="translate(8.73 49.5)"><tspan class="cls-20">P</tspan><tspan class="cls-21" x="7.38" y="0">l</tspan><tspan class="cls-22" x="10.68" y="0">a</tspan><tspan class="cls-23" x="17.32" y="0">y</tspan><tspan x="23.77" y="0">er name</tspan></text></g></g><g id="position-markers"><rect id="position-1" x="244" y="342.33" width="4" height="4.67"/><rect id="position-2" x="339" y="342.33" width="4" height="4.67"/><rect id="position-3" x="434" y="342.33" width="4" height="4.67"/><rect id="position-4" x="529" y="342.33" width="4" height="4.67"/></g></svg>